<?xml version="1.0" encoding="UTF-8" standalone="no"?>
<!DOCTYPE svg PUBLIC "-//W3C//DTD SVG 1.1//EN" "http://www.w3.org/Graphics/SVG/1.1/DTD/svg11.dtd">
<!-- Generated by Microsoft Visio, SVG Export memory_order.svg Page-1 -->
<svg xmlns="http://www.w3.org/2000/svg" xmlns:xlink="http://www.w3.org/1999/xlink" xmlns:ev="http://www.w3.org/2001/xml-events"
		xmlns:v="http://schemas.microsoft.com/visio/2003/SVGExtensions/" width="11in" height="8.5in" viewBox="0 0 792 612"
		xml:space="preserve" color-interpolation-filters="sRGB" class="st9">
	<v:documentProperties v:langID="1033" v:viewMarkup="false">
		<v:userDefs>
			<v:ud v:nameU="msvSubprocessMaster" v:prompt="" v:val="VT4(Rectangle)"/>
			<v:ud v:nameU="msvNoAutoConnect" v:val="VT0(1):26"/>
		</v:userDefs>
	</v:documentProperties>

	<style type="text/css">
	<![CDATA[
		.st1 {fill:url(#grad0-4);stroke:#4f87bb;stroke-width:0.75}
		.st2 {fill:#4f87bb;font-family:Calibri;font-size:0.833336em}
		.st3 {font-size:1em}
		.st4 {marker-end:url(#mrkr4-24);stroke:#5b9bd5;stroke-linecap:round;stroke-linejoin:round;stroke-width:1}
		.st5 {fill:#5b9bd5;fill-opacity:1;stroke:#5b9bd5;stroke-opacity:1;stroke-width:0.28409090909091}
		.st6 {fill:#ffffff;stroke:none;stroke-linecap:butt;stroke-width:7.2}
		.st7 {fill:#4f87bb;font-family:Calibri;font-size:0.666664em}
		.st8 {stroke:#ed7d31;stroke-linecap:round;stroke-linejoin:round;stroke-width:1}
		.st9 {fill:none;fill-rule:evenodd;font-size:12px;overflow:visible;stroke-linecap:square;stroke-miterlimit:3}
	]]>
	</style>

	<defs id="Patterns_And_Gradients">
		<linearGradient id="grad0-4" x1="0" y1="0" x2="1" y2="0" gradientTransform="rotate(60 0.5 0.5)">
			<stop offset="0" stop-color="#e9eff7" stop-opacity="1"/>
			<stop offset="0.24" stop-color="#f4f7fb" stop-opacity="1"/>
			<stop offset="0.54" stop-color="#feffff" stop-opacity="1"/>
		</linearGradient>
	</defs>
	<defs id="Markers">
		<g id="lend4">
			<path d="M 2 1 L 0 0 L 2 -1 L 2 1 " style="stroke:none"/>
		</g>
		<marker id="mrkr4-24" class="st5" v:arrowType="4" v:arrowSize="2" v:setback="7.04" refX="-7.04" orient="auto"
				markerUnits="strokeWidth" overflow="visible">
			<use xlink:href="#lend4" transform="scale(-3.52,-3.52) "/>
		</marker>
	</defs>
	<g v:mID="0" v:index="1" v:groupContext="foregroundPage">
		<v:userDefs>
			<v:ud v:nameU="msvThemeOrder" v:val="VT0(0):26"/>
		</v:userDefs>
		<title>Page-1</title>
		<v:pageProperties v:drawingScale="1" v:pageScale="1" v:drawingUnits="0" v:shadowOffsetX="9" v:shadowOffsetY="-9"/>
		<v:layer v:name="Connector" v:index="0"/>
		<g id="shape175-1" v:mID="175" v:groupContext="shape" transform="translate(85.5,-562.5)">
			<title>Ellipse.175</title>
			<desc>Processor 1</desc>
			<v:userDefs>
				<v:ud v:nameU="visVersion" v:val="VT0(15):26"/>
			</v:userDefs>
			<v:textBlock v:margins="rect(4,4,4,4)"/>
			<v:textRect cx="31.5" cy="596.25" width="55.13" height="27.5625"/>
			<path d="M0 596.25 A31.5 15.75 0 0 1 63 596.25 A31.5 15.75 0 1 1 0 596.25 Z" class="st1"/>
			<text x="7.98" y="599.25" class="st2" v:langID="1033"><v:paragraph v:horizAlign="1"/><v:tabList/>Processor 1</text>		</g>
		<g id="shape176-6" v:mID="176" v:groupContext="shape" transform="translate(247.5,-562.5)">
			<title>Ellipse.176</title>
			<desc>Processor 2</desc>
			<v:userDefs>
				<v:ud v:nameU="visVersion" v:val="VT0(15):26"/>
			</v:userDefs>
			<v:textBlock v:margins="rect(4,4,4,4)"/>
			<v:textRect cx="31.5" cy="596.25" width="55.13" height="27.5625"/>
			<path d="M0 596.25 A31.5 15.75 0 0 1 63 596.25 A31.5 15.75 0 1 1 0 596.25 Z" class="st1"/>
			<text x="7.98" y="599.25" class="st2" v:langID="1033"><v:paragraph v:horizAlign="1"/><v:tabList/>Processor 2</text>		</g>
		<g id="shape178-10" v:mID="178" v:groupContext="shape" transform="translate(243,-462.75)">
			<title>Diamond.178</title>
			<desc>begin_sem1==1</desc>
			<v:userDefs>
				<v:ud v:nameU="visVersion" v:prompt="" v:val="VT0(15):26"/>
			</v:userDefs>
			<v:textBlock v:margins="rect(4,4,4,4)"/>
			<v:textRect cx="36" cy="588" width="72" height="48"/>
			<path d="M36 612 L72 588 L36 564 L0 588 L36 612 Z" class="st1"/>
			<text x="6.31" y="585" class="st2" v:langID="1033"><v:paragraph v:horizAlign="1"/><v:tabList/>begin_sem1==<tspan
						x="33.47" dy="1.2em" class="st3">1</tspan></text>		</g>
		<g id="shape180-15" v:mID="180" v:groupContext="shape" transform="translate(243,-343.5)">
			<title>Rectangle.180</title>
			<desc>test1</desc>
			<v:userDefs>
				<v:ud v:nameU="visVersion" v:val="VT0(15):26"/>
			</v:userDefs>
			<v:textBlock v:margins="rect(4,4,4,4)"/>
			<v:textRect cx="36" cy="588" width="72" height="48"/>
			<rect x="0" y="564" width="72" height="48" class="st1"/>
			<text x="25.67" y="591" class="st2" v:langID="1033"><v:paragraph v:horizAlign="1"/><v:tabList/>test1</text>		</g>
		<g id="shape184-19" v:mID="184" v:groupContext="shape" v:layerMember="0" transform="translate(270,-562.5)">
			<title>Dynamic connector.184</title>
			<path d="M9 612 L9 656.71" class="st4"/>
		</g>
		<g id="shape185-25" v:mID="185" v:groupContext="shape" v:layerMember="0" transform="translate(270,-462.75)">
			<title>Dynamic connector.185</title>
			<desc>Y</desc>
			<v:textBlock v:margins="rect(4,4,4,4)"/>
			<v:textRect cx="9" cy="625.875" width="40" height="17.6036"/>
			<path d="M9 612 L9 632.71" class="st4"/>
			<rect v:rectContext="textBkgnd" x="7.05081" y="621.075" width="3.8985" height="9.59985" class="st6"/>
			<text x="7.05" y="628.28" class="st7" v:langID="1033"><v:paragraph v:horizAlign="1"/><v:tabList/>Y</text>		</g>
		<g id="shape186-32" v:mID="186" v:groupContext="shape" v:layerMember="0" transform="translate(315,-486.75)">
			<title>Dynamic connector.186</title>
			<desc>N</desc>
			<v:textBlock v:margins="rect(4,4,4,4)"/>
			<v:textRect cx="7.5" cy="576.75" width="40" height="17.6036"/>
			<path d="M0 612 L13.5 612 L13.5 576.75 L-36 576.75 L-36 580.96" class="st4"/>
			<rect v:rectContext="textBkgnd" x="4.918" y="571.95" width="5.16412" height="9.59985" class="st6"/>
			<text x="4.92" y="579.15" class="st7" v:langID="1033"><v:paragraph v:horizAlign="1"/><v:tabList/>N</text>		</g>
		<g id="shape187-39" v:mID="187" v:groupContext="shape" v:layerMember="0" transform="translate(270,-343.5)">
			<title>Dynamic connector.187</title>
			<path d="M9 612 L9 632.71" class="st4"/>
		</g>
		<g id="shape198-44" v:mID="198" v:groupContext="shape" transform="translate(81,-492)">
			<title>Rectangle.198</title>
			<desc>begin_sem1=0 Begin_sem2=0 End_sem=0</desc>
			<v:userDefs>
				<v:ud v:nameU="visVersion" v:val="VT0(15):26"/>
			</v:userDefs>
			<v:textBlock v:margins="rect(4,4,4,4)"/>
			<v:textRect cx="36" cy="588" width="72" height="48"/>
			<rect x="0" y="564" width="72" height="48" class="st1"/>
			<text x="6.27" y="579" class="st2" v:langID="1033"><v:paragraph v:horizAlign="1"/><v:tabList/>begin_sem1=0<v:newlineChar/><tspan
						x="6.18" dy="1.2em" class="st3">Begin</tspan>_sem2=0<v:newlineChar/><tspan x="12.35" dy="1.2em" class="st3">End</tspan>_sem=0</text>		</g>
		<g id="shape199-50" v:mID="199" v:groupContext="shape" transform="translate(81,-152.625)">
			<title>Rectangle.199</title>
			<desc>Statitics</desc>
			<v:userDefs>
				<v:ud v:nameU="visVersion" v:val="VT0(15):26"/>
			</v:userDefs>
			<v:textBlock v:margins="rect(4,4,4,4)"/>
			<v:textRect cx="36" cy="588" width="72" height="48"/>
			<rect x="0" y="564" width="72" height="48" class="st1"/>
			<text x="19.92" y="591" class="st2" v:langID="1033"><v:paragraph v:horizAlign="1"/><v:tabList/>Statitics</text>		</g>
		<g id="shape200-54" v:mID="200" v:groupContext="shape" transform="translate(81,-267.75)">
			<title>Diamond.200</title>
			<desc>End_sem==2?</desc>
			<v:userDefs>
				<v:ud v:nameU="visVersion" v:prompt="" v:val="VT0(15):26"/>
			</v:userDefs>
			<v:textBlock v:margins="rect(4,4,4,4)"/>
			<v:textRect cx="36" cy="588" width="72" height="48"/>
			<path d="M36 612 L72 588 L36 564 L0 588 L36 612 Z" class="st1"/>
			<text x="7.55" y="591" class="st2" v:langID="1033"><v:paragraph v:horizAlign="1"/><v:tabList/>End_sem==2?</text>		</g>
		<g id="shape201-58" v:mID="201" v:groupContext="shape" v:layerMember="0" transform="translate(108,-562.5)">
			<title>Dynamic connector.201</title>
			<path d="M9 612 L9 627.46" class="st4"/>
		</g>
		<g id="shape202-63" v:mID="202" v:groupContext="shape" v:layerMember="0" transform="translate(153,-291.75)">
			<title>Dynamic connector.202</title>
			<desc>N</desc>
			<v:textBlock v:margins="rect(4,4,4,4)"/>
			<v:textRect cx="7.5" cy="579" width="40" height="17.6036"/>
			<path d="M0 612 L13.5 612 L13.5 579 L-36 579 L-36 580.96" class="st4"/>
			<rect v:rectContext="textBkgnd" x="4.918" y="574.2" width="5.16412" height="9.59985" class="st6"/>
			<text x="4.92" y="581.4" class="st7" v:langID="1033"><v:paragraph v:horizAlign="1"/><v:tabList/>N</text>		</g>
		<g id="shape203-70" v:mID="203" v:groupContext="shape" transform="translate(243,-284.25)">
			<title>Rectangle.203</title>
			<desc>End_sem++</desc>
			<v:userDefs>
				<v:ud v:nameU="visVersion" v:val="VT0(15):26"/>
			</v:userDefs>
			<v:textBlock v:margins="rect(4,4,4,4)"/>
			<v:textRect cx="36" cy="596.25" width="72" height="31.5"/>
			<rect x="0" y="580.5" width="72" height="31.5" class="st1"/>
			<text x="12.4" y="599.25" class="st2" v:langID="1033"><v:paragraph v:horizAlign="1"/><v:tabList/>End_sem++</text>		</g>
		<g id="shape204-74" v:mID="204" v:groupContext="shape" v:layerMember="0" transform="translate(270,-284.25)">
			<title>Dynamic connector.204</title>
			<path d="M9 612 L9 625.39 L-63 625.39 L-63 353.68 L9 353.68 L9 378.46" class="st4"/>
		</g>
		<g id="shape208-79" v:mID="208" v:groupContext="shape" transform="translate(18,-414)">
			<title>Sheet.208</title>
			<path d="M0 612 L477 612" class="st8"/>
		</g>
		<g id="shape209-82" v:mID="209" v:groupContext="shape" transform="translate(18,-333)">
			<title>Sheet.209</title>
			<path d="M0 612 L481.5 612" class="st8"/>
		</g>
		<g id="shape211-85" v:mID="211" v:groupContext="shape" v:layerMember="0" transform="translate(108,-267.75)">
			<title>Dynamic connector.211</title>
			<desc>Y</desc>
			<v:textBlock v:margins="rect(4,4,4,4)"/>
			<v:textRect cx="9" cy="624.187" width="40" height="17.6036"/>
			<path d="M9 612 L9 629.33" class="st4"/>
			<rect v:rectContext="textBkgnd" x="7.05081" y="619.388" width="3.8985" height="9.59985" class="st6"/>
			<text x="7.05" y="626.59" class="st7" v:langID="1033"><v:paragraph v:horizAlign="1"/><v:tabList/>Y</text>		</g>
		<g id="shape212-92" v:mID="212" v:groupContext="shape" v:layerMember="0" transform="translate(117,-152.625)">
			<title>Dynamic connector.212</title>
			<path d="M0 612 L0 625.77 L-81 625.77 L-81 314.62 L-43.04 314.62" class="st4"/>
		</g>
		<g id="shape222-97" v:mID="222" v:groupContext="shape" v:layerMember="0" transform="translate(108,-492)">
			<title>Dynamic connector.222</title>
			<path d="M9 612 L9 631.21" class="st4"/>
		</g>
		<g id="shape224-102" v:mID="224" v:groupContext="shape" transform="translate(81,-434.25)">
			<title>Rectangle.224</title>
			<desc>begin_sem1++ Begin_sem2++</desc>
			<v:userDefs>
				<v:ud v:nameU="visVersion" v:val="VT0(15):26"/>
			</v:userDefs>
			<v:textBlock v:margins="rect(4,4,4,4)"/>
			<v:textRect cx="36" cy="596.25" width="72" height="31.5"/>
			<rect x="0" y="580.5" width="72" height="31.5" class="st1"/>
			<text x="6.31" y="593.25" class="st2" v:langID="1033"><v:paragraph v:horizAlign="1"/><v:tabList/>begin_sem1++<v:newlineChar/><tspan
						x="6.22" dy="1.2em" class="st3">Begin</tspan>_sem2++</text>		</g>
		<g id="shape225-107" v:mID="225" v:groupContext="shape" v:layerMember="0" transform="translate(108,-434.25)">
			<title>Dynamic connector.225</title>
			<path d="M9 612 L9 723.46" class="st4"/>
		</g>
		<g id="shape226-112" v:mID="226" v:groupContext="shape" transform="translate(400.5,-562.5)">
			<title>Ellipse.226</title>
			<desc>Processor 3</desc>
			<v:userDefs>
				<v:ud v:nameU="visVersion" v:val="VT0(15):26"/>
			</v:userDefs>
			<v:textBlock v:margins="rect(4,4,4,4)"/>
			<v:textRect cx="31.5" cy="596.25" width="55.13" height="27.5625"/>
			<path d="M0 596.25 A31.5 15.75 0 0 1 63 596.25 A31.5 15.75 0 1 1 0 596.25 Z" class="st1"/>
			<text x="7.98" y="599.25" class="st2" v:langID="1033"><v:paragraph v:horizAlign="1"/><v:tabList/>Processor 3</text>		</g>
		<g id="shape227-116" v:mID="227" v:groupContext="shape" transform="translate(396,-462.75)">
			<title>Diamond.227</title>
			<desc>begin_sem2==1</desc>
			<v:userDefs>
				<v:ud v:nameU="visVersion" v:prompt="" v:val="VT0(15):26"/>
			</v:userDefs>
			<v:textBlock v:margins="rect(4,4,4,4)"/>
			<v:textRect cx="36" cy="588" width="72" height="48"/>
			<path d="M36 612 L72 588 L36 564 L0 588 L36 612 Z" class="st1"/>
			<text x="6.31" y="585" class="st2" v:langID="1033"><v:paragraph v:horizAlign="1"/><v:tabList/>begin_sem2==<tspan
						x="33.47" dy="1.2em" class="st3">1</tspan></text>		</g>
		<g id="shape228-121" v:mID="228" v:groupContext="shape" transform="translate(396,-343.5)">
			<title>Rectangle.228</title>
			<desc>test2</desc>
			<v:userDefs>
				<v:ud v:nameU="visVersion" v:val="VT0(15):26"/>
			</v:userDefs>
			<v:textBlock v:margins="rect(4,4,4,4)"/>
			<v:textRect cx="36" cy="588" width="72" height="48"/>
			<rect x="0" y="564" width="72" height="48" class="st1"/>
			<text x="25.67" y="591" class="st2" v:langID="1033"><v:paragraph v:horizAlign="1"/><v:tabList/>test2</text>		</g>
		<g id="shape229-125" v:mID="229" v:groupContext="shape" v:layerMember="0" transform="translate(423,-562.5)">
			<title>Dynamic connector.229</title>
			<path d="M9 612 L9 656.71" class="st4"/>
		</g>
		<g id="shape230-130" v:mID="230" v:groupContext="shape" v:layerMember="0" transform="translate(423,-462.75)">
			<title>Dynamic connector.230</title>
			<desc>Y</desc>
			<v:textBlock v:margins="rect(4,4,4,4)"/>
			<v:textRect cx="9" cy="625.875" width="40" height="17.6036"/>
			<path d="M9 612 L9 632.71" class="st4"/>
			<rect v:rectContext="textBkgnd" x="7.05081" y="621.075" width="3.8985" height="9.59985" class="st6"/>
			<text x="7.05" y="628.28" class="st7" v:langID="1033"><v:paragraph v:horizAlign="1"/><v:tabList/>Y</text>		</g>
		<g id="shape231-137" v:mID="231" v:groupContext="shape" v:layerMember="0" transform="translate(468,-486.75)">
			<title>Dynamic connector.231</title>
			<desc>N</desc>
			<v:textBlock v:margins="rect(4,4,4,4)"/>
			<v:textRect cx="7.5" cy="574.5" width="40" height="17.6036"/>
			<path d="M0 612 L13.5 612 L13.5 574.5 L-36 574.5 L-36 580.96" class="st4"/>
			<rect v:rectContext="textBkgnd" x="4.918" y="569.7" width="5.16412" height="9.59985" class="st6"/>
			<text x="4.92" y="576.9" class="st7" v:langID="1033"><v:paragraph v:horizAlign="1"/><v:tabList/>N</text>		</g>
		<g id="shape232-144" v:mID="232" v:groupContext="shape" v:layerMember="0" transform="translate(423,-343.5)">
			<title>Dynamic connector.232</title>
			<path d="M9 612 L9 631.96" class="st4"/>
		</g>
		<g id="shape233-149" v:mID="233" v:groupContext="shape" transform="translate(396,-285)">
			<title>Rectangle.233</title>
			<desc>End_sem++</desc>
			<v:userDefs>
				<v:ud v:nameU="visVersion" v:val="VT0(15):26"/>
			</v:userDefs>
			<v:textBlock v:margins="rect(4,4,4,4)"/>
			<v:textRect cx="36" cy="596.25" width="72" height="31.5"/>
			<rect x="0" y="580.5" width="72" height="31.5" class="st1"/>
			<text x="12.4" y="599.25" class="st2" v:langID="1033"><v:paragraph v:horizAlign="1"/><v:tabList/>End_sem++</text>		</g>
		<g id="shape234-153" v:mID="234" v:groupContext="shape" v:layerMember="0" transform="translate(423,-285)">
			<title>Dynamic connector.234</title>
			<path d="M9 612 L9 626.14 L-63 626.14 L-63 355.29 L9 355.29 L9 379.21" class="st4"/>
		</g>
		<g id="shape236-158" v:mID="236" v:groupContext="shape" transform="translate(81,-227.625)">
			<title>Rectangle.236</title>
			<desc>End_sem=0</desc>
			<v:userDefs>
				<v:ud v:nameU="visVersion" v:val="VT0(15):26"/>
			</v:userDefs>
			<v:textBlock v:margins="rect(4,4,4,4)"/>
			<v:textRect cx="36" cy="604.125" width="72" height="15.75"/>
			<rect x="0" y="596.25" width="72" height="15.75" class="st1"/>
			<text x="12.35" y="607.13" class="st2" v:langID="1033"><v:paragraph v:horizAlign="1"/><v:tabList/>End_sem=0</text>		</g>
		<g id="shape237-162" v:mID="237" v:groupContext="shape" v:layerMember="0" transform="translate(108,-227.625)">
			<title>Dynamic connector.237</title>
			<path d="M9 612 L9 631.96" class="st4"/>
		</g>
		<g id="shape238-167" v:mID="238" v:groupContext="shape" transform="translate(243,-419.25)">
			<title>Rectangle.238</title>
			<desc>begin_sem1--</desc>
			<v:userDefs>
				<v:ud v:nameU="visVersion" v:val="VT0(15):26"/>
			</v:userDefs>
			<v:textBlock v:margins="rect(4,4,4,4)"/>
			<v:textRect cx="36" cy="604.125" width="72" height="15.75"/>
			<rect x="0" y="596.25" width="72" height="15.75" class="st1"/>
			<text x="8.23" y="607.13" class="st2" v:langID="1033"><v:paragraph v:horizAlign="1"/><v:tabList/>begin_sem1--</text>		</g>
		<g id="shape239-171" v:mID="239" v:groupContext="shape" v:layerMember="0" transform="translate(270,-419.25)">
			<title>Dynamic connector.239</title>
			<path d="M9 612 L9 632.71" class="st4"/>
		</g>
		<g id="shape241-176" v:mID="241" v:groupContext="shape" transform="translate(396,-419.25)">
			<title>Rectangle.241</title>
			<desc>begin_sem2--</desc>
			<v:userDefs>
				<v:ud v:nameU="visVersion" v:val="VT0(15):26"/>
			</v:userDefs>
			<v:textBlock v:margins="rect(4,4,4,4)"/>
			<v:textRect cx="36" cy="604.125" width="72" height="15.75"/>
			<rect x="0" y="596.25" width="72" height="15.75" class="st1"/>
			<text x="8.23" y="607.13" class="st2" v:langID="1033"><v:paragraph v:horizAlign="1"/><v:tabList/>begin_sem2--</text>		</g>
		<g id="shape242-180" v:mID="242" v:groupContext="shape" v:layerMember="0" transform="translate(423,-419.25)">
			<title>Dynamic connector.242</title>
			<path d="M9 612 L9 632.71" class="st4"/>
		</g>
	</g>
</svg>
